<svg xmlns="http://www.w3.org/2000/svg" width="24" height="24" fill="none" viewBox="0 0 24 24">
  <path fill="currentColor" fill-rule="evenodd" d="M8.465 2.985A6.3 6.3 0 0 1 18.3 8.2c0 1.944.25 3.454.591 4.61a.6.6 0 1 1-1.15.34c-.378-1.277-.64-2.902-.64-4.95a5.1 5.1 0 0 0-7.963-4.221.6.6 0 0 1-.673-.994Zm-5.44.04a.6.6 0 0 1 .85 0l3.069 3.07a.598.598 0 0 1 .05.05l13.98 13.98a.6.6 0 0 1-.848.85l-3.624-3.625H5.704c-.555 0-.99 0-1.302-.012a4.076 4.076 0 0 1-.422-.034.996.996 0 0 1-.758-.501 1.06 1.06 0 0 1-.122-.44.815.815 0 0 1 .035-.299c.02-.068.048-.134.075-.194.054-.119.13-.259.219-.413.178-.309.444-.736.787-1.287l.007-.012C4.988 12.928 5.7 11.03 5.7 8.2c0-.501.06-.997.175-1.476l-2.85-2.85a.6.6 0 0 1 0-.848Zm3.893 4.742A5.103 5.103 0 0 0 6.9 8.2c0 3.042-.769 5.163-1.658 6.592a51.676 51.676 0 0 0-.82 1.346h.027c.285.012.697.012 1.27.012h9.583L6.919 7.767Zm-2.801 8.342.01.003-.01-.003Zm4.92 4.044a.6.6 0 0 1 .847-.053c.564.498 1.304.8 2.116.8s1.552-.302 2.117-.8a.6.6 0 1 1 .794.9A4.386 4.386 0 0 1 12 22.1 4.386 4.386 0 0 1 9.09 21a.6.6 0 0 1-.053-.847Z" clip-rule="evenodd"/>
</svg>
