<svg xmlns="http://www.w3.org/2000/svg" width="24" height="24" fill="none" viewBox="0 0 24 24">
  <path fill="currentColor" fill-rule="evenodd" d="M7.547 3.745A6.3 6.3 0 0 1 18.302 8.2c0 2.83.712 4.728 1.477 5.958l.008.012c.342.55.608.978.786 1.287.09.154.165.294.22.413.026.06.053.126.074.194a.815.815 0 0 1 .035.299 1.06 1.06 0 0 1-.122.44.996.996 0 0 1-.758.501 4.077 4.077 0 0 1-.422.034c-.311.012-.747.012-1.302.012H5.706c-.555 0-.99 0-1.302-.012a4.076 4.076 0 0 1-.422-.034.996.996 0 0 1-.758-.501 1.06 1.06 0 0 1-.122-.44.814.814 0 0 1 .036-.299c.02-.068.047-.134.074-.194a4.74 4.74 0 0 1 .22-.413c.177-.309.443-.736.786-1.287l.007-.012c.765-1.23 1.477-3.129 1.477-5.958a6.3 6.3 0 0 1 1.845-4.455Zm4.455-.645a5.1 5.1 0 0 0-5.1 5.1c0 3.042-.769 5.163-1.658 6.592a51.644 51.644 0 0 0-.82 1.346h.027c.285.012.697.012 1.27.012h12.562c.574 0 .985 0 1.27-.011l.027-.001a51.44 51.44 0 0 0-.82-1.346c-.889-1.43-1.658-3.55-1.658-6.592a5.1 5.1 0 0 0-5.1-5.1Zm7.873 13.012a.074.074 0 0 1 .01-.003l-.01.003ZM4.119 16.11Zm4.92 4.044a.6.6 0 0 1 .847-.053c.564.498 1.304.8 2.116.8s1.552-.302 2.117-.8a.6.6 0 1 1 .794.9 4.386 4.386 0 0 1-2.91 1.1A4.386 4.386 0 0 1 9.091 21a.6.6 0 0 1-.053-.847Z" clip-rule="evenodd"/>
</svg>
