<svg xmlns="http://www.w3.org/2000/svg" width="24" height="24" fill="none" viewBox="0 0 24 24">
  <path fill="currentColor" fill-rule="evenodd" d="M5.076 2.835h13.848c.26 0 .493 0 .687.016.208.017.429.055.645.165.313.16.568.415.728.728.11.216.148.437.165.645a9 9 0 0 1 .016.687v.808c0 .197 0 .396-.046.59a1.63 1.63 0 0 1-.2.482c-.104.17-.245.31-.384.45l-.033.033-5.063 5.063c-.195.195-.213.219-.225.237a.334.334 0 0 0-.04.097c-.005.02-.009.05-.009.327v4.994c0 .266.001.533-.079.783-.07.219-.184.42-.336.593-.173.198-.402.335-.63.47a.616.616 0 0 1-.055.033l-1.826 1.096c-.374.225-.693.416-.96.545-.27.13-.586.247-.934.215a1.665 1.665 0 0 1-1.187-.673c-.207-.281-.269-.613-.296-.91-.027-.295-.027-.668-.027-1.104v-6.042c0-.277-.004-.306-.01-.327a.335.335 0 0 0-.04-.097c-.01-.018-.028-.042-.224-.237L3.498 7.439l-.032-.033c-.14-.14-.281-.28-.386-.45a1.665 1.665 0 0 1-.199-.482 2.497 2.497 0 0 1-.046-.637v-.761c0-.26 0-.493.016-.687a1.69 1.69 0 0 1 .166-.645c.16-.313.414-.568.727-.728a1.69 1.69 0 0 1 .645-.165c.194-.016.428-.016.687-.016Zm-.723 1.364-.005.003a.335.335 0 0 0-.146.146l-.003.005a.856.856 0 0 0-.023.144 8.39 8.39 0 0 0-.01.603v.737c-.001.277.003.306.008.327a.335.335 0 0 0 .04.097c.012.018.03.042.225.237l5.063 5.063.032.033c.14.14.281.28.386.45a1.7 1.7 0 0 1 .199.481c.047.195.046.394.046.591v6.058c0 .476 0 .786.022 1.013.016.182.042.24.045.248.056.075.14.122.233.132a.835.835 0 0 0 .237-.088c.205-.1.471-.258.88-.503l1.8-1.08c.32-.193.351-.22.37-.241a.336.336 0 0 0 .067-.12c.009-.026.016-.067.016-.44v-4.979c0-.197 0-.396.046-.59.04-.17.108-.333.2-.482a2.5 2.5 0 0 1 .418-.483l5.062-5.063c.195-.195.213-.219.225-.237a.334.334 0 0 0 .04-.097c.005-.02.01-.05.01-.327V5.1c0-.291-.002-.47-.012-.603a.847.847 0 0 0-.026-.15.335.335 0 0 0-.146-.145l-.005-.003a.852.852 0 0 0-.144-.023 8.39 8.39 0 0 0-.603-.011H5.1c-.29 0-.47 0-.603.011a.854.854 0 0 0-.144.023Z" clip-rule="evenodd"/>
</svg>
