<svg xmlns="http://www.w3.org/2000/svg" width="24" height="24" fill="none" viewBox="0 0 24 24">
  <path fill="currentColor" fill-rule="evenodd" d="M6.078 2.1h11.844c.261 0 .492 0 .684.016.203.016.415.054.62.158a1.6 1.6 0 0 1 .7.7c.104.205.142.416.158.62.016.192.016.423.016.684v16.06c0 .206 0 .4-.014.559-.015.16-.051.384-.196.583a1.1 1.1 0 0 1-.775.447 1.146 1.146 0 0 1-.603-.122 6.562 6.562 0 0 1-.492-.267l-5.52-3.19c-.326-.19-.377-.21-.417-.22a.4.4 0 0 0-.166 0c-.04.01-.09.03-.417.22l-5.52 3.19c-.18.103-.347.2-.491.267a1.146 1.146 0 0 1-.604.122 1.1 1.1 0 0 1-.775-.447 1.147 1.147 0 0 1-.196-.583 6.578 6.578 0 0 1-.014-.56V4.279c0-.261 0-.492.016-.684a1.62 1.62 0 0 1 .158-.62 1.6 1.6 0 0 1 .7-.7c.205-.104.417-.142.62-.158.192-.016.423-.016.684-.016Zm-.586 1.212a.494.494 0 0 0-.174.032.4.4 0 0 0-.174.174.493.493 0 0 0-.032.174A8.432 8.432 0 0 0 5.1 4.3v16.014c0 .148 0 .257.003.342.074-.04.169-.095.297-.17l5.5-3.178.053-.031c.237-.137.463-.268.714-.322a1.6 1.6 0 0 1 .666 0c.251.054.477.185.714.322l.054.031 5.499 3.179c.128.074.223.129.297.169.003-.085.003-.194.003-.342V4.3c0-.29 0-.471-.012-.608a.493.493 0 0 0-.032-.174.4.4 0 0 0-.174-.174.493.493 0 0 0-.174-.032A8.44 8.44 0 0 0 17.9 3.3H6.1c-.29 0-.471 0-.608.012Z" clip-rule="evenodd"/>
</svg>
