<svg xmlns="http://www.w3.org/2000/svg" width="24" height="24" fill="none" viewBox="0 0 24 24">
  <path fill="currentColor" fill-rule="evenodd" d="M9.274 3.9H9.3a.6.6 0 0 1 0 1.2c-.85 0-1.451 0-1.922.039-.463.038-.745.11-.968.223A2.4 2.4 0 0 0 5.361 6.41c-.113.223-.184.505-.222.968-.039.47-.04 1.072-.04 1.922v5.4c0 .85.001 1.451.04 1.922.038.463.11.745.222.968a2.4 2.4 0 0 0 1.05 1.048c.222.114.504.185.967.223.47.038 1.072.039 1.922.039h5.4c.85 0 1.451 0 1.921-.039.464-.038.746-.11.969-.223a2.4 2.4 0 0 0 1.048-1.048c.113-.223.185-.505.223-.968.038-.47.039-1.072.039-1.922a.6.6 0 1 1 1.2 0v.026c0 .818 0 1.469-.043 1.993-.044.538-.136.996-.35 1.415a3.6 3.6 0 0 1-1.573 1.574c-.42.213-.878.305-1.415.35-.525.042-1.175.042-1.993.042H9.274c-.818 0-1.469 0-1.993-.043-.538-.044-.996-.136-1.415-.35a3.6 3.6 0 0 1-1.574-1.573c-.213-.42-.305-.877-.35-1.415-.042-.524-.042-1.175-.042-1.993V9.274c0-.818 0-1.468.043-1.993.044-.538.136-.996.35-1.415a3.6 3.6 0 0 1 1.573-1.574c.42-.213.877-.305 1.415-.35C7.805 3.9 8.456 3.9 9.274 3.9Zm3.626.6a.6.6 0 0 1 .6-.6h6a.6.6 0 0 1 .6.6v6a.6.6 0 1 1-1.2 0V5.949l-5.976 5.975a.6.6 0 0 1-.848-.848L18.05 5.1H13.5a.6.6 0 0 1-.6-.6Z" clip-rule="evenodd"/>
</svg>
