<svg xmlns="http://www.w3.org/2000/svg" width="24" height="24" fill="none" viewBox="0 0 24 24">
  <path fill="currentColor" fill-rule="evenodd" d="M7.774 2.4h8.452c.818 0 1.468 0 1.993.043.537.044.996.136 1.415.35a3.6 3.6 0 0 1 1.573 1.573c.214.42.306.877.35 1.415.043.525.043 1.175.043 1.993v8.452c0 .818 0 1.469-.043 1.993-.044.538-.136.996-.35 1.415a3.6 3.6 0 0 1-1.573 1.574c-.42.213-.878.305-1.415.35-.525.042-1.175.042-1.993.042H7.774c-.818 0-1.469 0-1.993-.043-.538-.044-.996-.136-1.415-.35a3.6 3.6 0 0 1-1.574-1.573c-.213-.42-.305-.877-.35-1.415-.042-.524-.042-1.175-.042-1.993V7.774c0-.818 0-1.468.043-1.993.044-.538.136-.996.35-1.415a3.6 3.6 0 0 1 1.573-1.574c.42-.213.877-.305 1.415-.35C6.305 2.4 6.956 2.4 7.774 2.4ZM5.878 3.639c-.463.038-.745.11-.968.223A2.4 2.4 0 0 0 3.861 4.91c-.113.223-.184.505-.222.968-.039.47-.04 1.072-.04 1.922v8.4c0 .85.001 1.451.04 1.922.038.463.11.745.222.968a2.4 2.4 0 0 0 1.05 1.048c.222.114.504.185.967.223.47.038 1.072.039 1.922.039h8.4c.85 0 1.451 0 1.921-.039.464-.038.746-.11.969-.223a2.4 2.4 0 0 0 1.048-1.048c.113-.223.185-.505.223-.968.038-.47.039-1.072.039-1.922V7.8c0-.85 0-1.451-.039-1.922-.038-.463-.11-.745-.223-.968a2.4 2.4 0 0 0-1.049-1.048c-.222-.114-.504-.185-.968-.223C17.651 3.6 17.05 3.6 16.2 3.6H7.8c-.85 0-1.451 0-1.922.039ZM8.5 5.9a.6.6 0 0 1 .6.6v1.4h1.4a.6.6 0 1 1 0 1.2H9.1v1.4a.6.6 0 1 1-1.2 0V9.1H6.5a.6.6 0 0 1 0-1.2h1.4V6.5a.6.6 0 0 1 .6-.6Zm8.576.176a.6.6 0 0 1 .848.848l-11 11a.6.6 0 0 1-.848-.848l11-11ZM12.9 15.5a.6.6 0 0 1 .6-.6h4a.6.6 0 1 1 0 1.2h-4a.6.6 0 0 1-.6-.6Z" clip-rule="evenodd"/>
</svg>
