<svg xmlns="http://www.w3.org/2000/svg" width="24" height="24" fill="none" viewBox="0 0 24 24">
  <path fill="currentColor" d="M10.304 13.176a.6.6 0 0 0-.849.848l1.697 1.697-1.697 1.697a.6.6 0 1 0 .849.849L12 16.57l1.697 1.697a.6.6 0 0 0 .848-.849l-1.697-1.697 1.697-1.697a.6.6 0 0 0-.848-.848L12 14.873l-1.697-1.697Z"/>
  <path fill="currentColor" fill-rule="evenodd" d="M8.6 2.714C8.6 2.32 8.332 2 8 2c-.331 0-.6.32-.6.714V4c-1.418.002-2.173.027-2.762.327a3 3 0 0 0-1.311 1.311C3 6.28 3 7.12 3 8.8v8.4c0 1.68 0 2.52.327 3.162a3 3 0 0 0 1.311 1.311C5.28 22 6.12 22 7.8 22h8.4c1.68 0 2.52 0 3.162-.327a3 3 0 0 0 1.311-1.311C21 19.72 21 18.88 21 17.2V8.8c0-1.68 0-2.52-.327-3.162a3 3 0 0 0-1.311-1.311c-.589-.3-1.344-.325-2.762-.327V2.714C16.6 2.32 16.332 2 16 2c-.331 0-.6.32-.6.714V4H8.6V2.714ZM5.927 5.237c.368-.03.83-.036 1.473-.037v1.086c0 .394.27.714.6.714.332 0 .6-.32.6-.714V5.2h6.8v1.086c0 .394.269.714.6.714.332 0 .6-.32.6-.714V5.2c.644.001 1.105.007 1.473.037.426.035.62.096.744.16a1.8 1.8 0 0 1 .787.786c.063.123.124.318.16.744.035.44.036 1.013.036 1.873v.6H4.2v-.6c0-.86 0-1.433.037-1.873.035-.426.096-.62.16-.744a1.8 1.8 0 0 1 .786-.787c.123-.063.318-.124.744-.16ZM4.2 10.6h15.6v6.6c0 .86 0 1.433-.037 1.873-.035.426-.096.62-.16.744a1.8 1.8 0 0 1-.786.787c-.123.063-.318.124-.744.16-.44.035-1.013.036-1.873.036H7.8c-.86 0-1.433 0-1.873-.037-.426-.035-.62-.096-.744-.16a1.8 1.8 0 0 1-.787-.786c-.063-.123-.124-.318-.16-.744-.035-.44-.036-1.013-.036-1.873v-6.6Z" clip-rule="evenodd"/>
</svg>
