<svg xmlns="http://www.w3.org/2000/svg" width="24" height="24" fill="none" viewBox="0 0 24 24">
  <path fill="currentColor" fill-rule="evenodd" d="M6.102 7.936c-1.55 1.294-2.63 2.809-3.175 3.671-.146.231-.153.254-.165.304l-.003.027a.676.676 0 0 0 0 .124l.003.027c.012.05.02.073.165.304.545.862 1.625 2.377 3.175 3.671C7.652 17.357 9.633 18.4 12 18.4c2.367 0 4.35-1.043 5.898-2.336 1.55-1.294 2.63-2.809 3.175-3.671.146-.231.154-.254.165-.304l.004-.027a.667.667 0 0 0 0-.124l-.004-.027c-.011-.05-.019-.073-.165-.304-.544-.862-1.624-2.377-3.175-3.671C16.35 6.643 14.368 5.6 12 5.6c-2.367 0-4.349 1.043-5.898 2.336Zm-.769-.921C7.017 5.609 9.263 4.4 12 4.4c2.738 0 4.984 1.21 6.667 2.615 1.682 1.404 2.84 3.032 3.42 3.951l.02.032c.12.19.24.377.3.645a1.76 1.76 0 0 1 0 .714c-.06.268-.18.456-.3.645l-.02.032c-.58.92-1.738 2.547-3.42 3.951C16.984 18.391 14.738 19.6 12 19.6s-4.983-1.21-6.667-2.615c-1.682-1.404-2.84-3.032-3.42-3.951l-.02-.032c-.12-.19-.239-.377-.3-.645a1.763 1.763 0 0 1 0-.714c.061-.268.18-.456.3-.645l.02-.032c.58-.92 1.738-2.547 3.42-3.951ZM12 9.6a2.4 2.4 0 1 0 0 4.8 2.4 2.4 0 0 0 0-4.8ZM8.4 12a3.6 3.6 0 1 1 7.2 0 3.6 3.6 0 0 1-7.2 0Z" clip-rule="evenodd"/>
</svg>
