<svg xmlns="http://www.w3.org/2000/svg" width="24" height="24" fill="none" viewBox="0 0 24 24">
  <path fill="currentColor" fill-rule="evenodd" d="M14.6 11a.6.6 0 0 1-.6.6H8a.6.6 0 1 1 0-1.2h6a.6.6 0 0 1 .6.6Zm-4 4a.6.6 0 0 1-.6.6H8a.6.6 0 1 1 0-1.2h2a.6.6 0 0 1 .6.6Zm6-8a.6.6 0 0 1-.6.6H8a.6.6 0 0 1 0-1.2h8a.6.6 0 0 1 .6.6ZM8.8 20.8h6.4c.86 0 1.433 0 1.873-.037.426-.035.62-.096.744-.16a1.8 1.8 0 0 0 .787-.786c.063-.123.124-.318.16-.744.035-.44.036-1.013.036-1.873V6.8c0-.86 0-1.433-.037-1.873-.035-.426-.096-.62-.16-.744a1.8 1.8 0 0 0-.786-.787c-.123-.063-.318-.124-.744-.16-.44-.035-1.013-.036-1.873-.036H8.8c-.86 0-1.433 0-1.873.037-.426.035-.62.096-.744.16a1.8 1.8 0 0 0-.787.786c-.063.123-.124.318-.16.744C5.202 5.367 5.2 5.94 5.2 6.8v10.4c0 .86 0 1.433.037 1.873.035.426.096.62.16.744a1.8 1.8 0 0 0 .786.787c.123.063.318.124.744.16.44.035 1.013.036 1.873.036ZM4.327 3.638C4 4.28 4 5.12 4 6.8v10.4c0 1.68 0 2.52.327 3.162a3 3 0 0 0 1.311 1.311C6.28 22 7.12 22 8.8 22h6.4c1.68 0 2.52 0 3.162-.327a3 3 0 0 0 1.311-1.311C20 19.72 20 18.88 20 17.2V6.8c0-1.68 0-2.52-.327-3.162a3 3 0 0 0-1.311-1.311C17.72 2 16.88 2 15.2 2H8.8c-1.68 0-2.52 0-3.162.327a3 3 0 0 0-1.311 1.311Z" clip-rule="evenodd"/>
</svg>
