<svg xmlns="http://www.w3.org/2000/svg" width="24" height="24" fill="none" viewBox="0 0 24 24">
  <path fill="currentColor" fill-rule="evenodd" d="M7.686 16.125a.911.911 0 0 0 .493.473c.213.072.447.06.652-.033.358-.148.716-.491 1.042-.885a12.82 12.82 0 0 0 1.149-1.699c.734-.217 1.485-.37 2.246-.457.3.395.643.754 1.025 1.07.314.248.677.453 1.05.468a.963.963 0 0 0 .573-.155c.172-.118.31-.28.399-.468a1.31 1.31 0 0 0 .155-.633.952.952 0 0 0-.225-.583c-.254-.304-.67-.45-1.08-.523a6.47 6.47 0 0 0-1.5-.056 12.32 12.32 0 0 1-1.103-1.897c.28-.743.49-1.445.585-2.019.04-.246.06-.48.053-.69a1.399 1.399 0 0 0-.143-.606.787.787 0 0 0-.537-.41c-.227-.049-.461 0-.677.086-.423.17-.647.528-.731.926-.083.383-.045.828.051 1.278.115.5.277.988.484 1.457-.345.86-.745 1.696-1.195 2.506A8.645 8.645 0 0 0 8.785 14c-.417.247-.786.54-1.01.886-.235.366-.308.803-.09 1.24Zm1.528-1.398c.156-.092.33-.182.516-.268a9.2 9.2 0 0 1-.506.682c-.315.38-.56.58-.715.643a.304.304 0 0 1-.039.014.257.257 0 0 1-.03-.05c-.062-.124-.06-.242.046-.406.12-.184.359-.397.728-.615Zm3.497-1.981c-.381.057-.76.13-1.136.217v-.001c.199-.389.386-.782.563-1.181.177.33.368.651.573.965Zm1.617.724c.168.182.332.337.488.46.27.214.458.285.56.289a.12.12 0 0 0 .08-.017.345.345 0 0 0 .105-.141.49.49 0 0 0 .066-.225.107.107 0 0 0-.029-.07c-.058-.07-.225-.172-.583-.236a4.363 4.363 0 0 0-.687-.06Zm-2.24-3.947a7.41 7.41 0 0 0 .225-.93c.035-.211.048-.385.043-.523a.689.689 0 0 0-.036-.222.581.581 0 0 0-.163.045c-.098.039-.178.119-.22.318-.046.216-.035.528.05.925.028.124.061.254.102.387Z" clip-rule="evenodd"/>
  <path fill="currentColor" fill-rule="evenodd" d="M4 6.8c0-1.68 0-2.52.327-3.162a3 3 0 0 1 1.311-1.311C6.28 2 7.12 2 8.8 2h6.4c1.68 0 2.52 0 3.162.327a3 3 0 0 1 1.311 1.311C20 4.28 20 5.12 20 6.8v10.4c0 1.68 0 2.52-.327 3.162a3 3 0 0 1-1.311 1.311C17.72 22 16.88 22 15.2 22H8.8c-1.68 0-2.52 0-3.162-.327a3 3 0 0 1-1.311-1.311C4 19.72 4 18.88 4 17.2V6.8Zm11.2 14H8.8c-.86 0-1.433 0-1.873-.037-.426-.035-.62-.096-.744-.16a1.8 1.8 0 0 1-.787-.786c-.063-.123-.124-.318-.16-.744-.035-.44-.036-1.013-.036-1.873V6.8c0-.86 0-1.433.037-1.873.035-.426.096-.62.16-.744a1.8 1.8 0 0 1 .786-.787c.123-.063.318-.124.744-.16C7.367 3.202 7.94 3.2 8.8 3.2h6.4c.86 0 1.433 0 1.873.037.426.035.62.096.744.16a1.8 1.8 0 0 1 .787.786c.063.123.124.318.16.744.035.44.036 1.013.036 1.873v10.4c0 .86 0 1.433-.037 1.873-.035.426-.096.62-.16.744a1.8 1.8 0 0 1-.786.787c-.123.063-.318.124-.744.16-.44.035-1.013.036-1.873.036Z" clip-rule="evenodd"/>
</svg>
