<svg xmlns="http://www.w3.org/2000/svg" width="24" height="24" fill="none" viewBox="0 0 24 24">
  <path fill="currentColor" d="M15.925 11.924a.6.6 0 1 0-.849-.848L11 15.15l-1.575-1.575a.6.6 0 1 0-.849.848l2 2a.6.6 0 0 0 .849 0l4.5-4.5Z"/>
  <path fill="currentColor" fill-rule="evenodd" d="M12.871 6.9h3.856c.817 0 1.468 0 1.993.043.537.044.995.136 1.415.35a3.6 3.6 0 0 1 1.573 1.573c.214.42.306.877.35 1.415.042.524.042 1.175.042 1.993v3.452c0 .818 0 1.469-.043 1.993-.043.538-.135.996-.349 1.415a3.6 3.6 0 0 1-1.573 1.574c-.42.213-.878.305-1.415.35-.525.042-1.176.042-1.993.042H7.274c-.818 0-1.468 0-1.993-.043-.537-.044-.995-.136-1.415-.35a3.6 3.6 0 0 1-1.573-1.573c-.214-.42-.306-.877-.35-1.415-.043-.524-.043-1.175-.043-1.993V6.675c0-.539 0-.98.03-1.337.03-.371.095-.706.254-1.018A2.6 2.6 0 0 1 3.32 3.183c.313-.159.647-.224 1.018-.254.358-.029.799-.029 1.337-.029h2.943c.625 0 1.08 0 1.494.142a2.6 2.6 0 0 1 .972.6c.312.307.516.714.795 1.273L12.87 6.9ZM8.523 4.1c.761 0 .999.008 1.198.076a1.4 1.4 0 0 1 .523.324c.15.147.264.356.604 1.037L11.53 6.9H3.1v-.2c0-.57 0-.961.026-1.265.024-.296.068-.455.127-.57a1.4 1.4 0 0 1 .612-.612c.115-.06.274-.104.57-.128C4.74 4.1 5.13 4.1 5.7 4.1h2.823Zm3.99 4H3.1v7.6c0 .85 0 1.451.04 1.922.037.463.109.745.222.968a2.4 2.4 0 0 0 1.049 1.048c.222.114.505.185.968.223.47.038 1.071.039 1.921.039h9.4c.85 0 1.452 0 1.922-.039.463-.038.746-.11.968-.223a2.4 2.4 0 0 0 1.049-1.049c.113-.222.185-.504.223-.967.038-.47.038-1.072.038-1.922v-3.4c0-.85 0-1.451-.038-1.922-.038-.463-.11-.745-.223-.968a2.4 2.4 0 0 0-1.049-1.048c-.222-.114-.505-.185-.968-.223C18.152 8.1 17.55 8.1 16.7 8.1h-4.187Z" clip-rule="evenodd"/>
</svg>
