<svg xmlns="http://www.w3.org/2000/svg" width="24" height="24" fill="none" viewBox="0 0 24 24">
  <path fill="currentColor" fill-rule="evenodd" d="M9.72 4.176c-.199-.068-.436-.076-1.198-.076H5.7c-.57 0-.961 0-1.265.025-.296.024-.455.069-.57.128a1.4 1.4 0 0 0-.613.611c-.058.116-.103.275-.127.571C3.1 5.74 3.1 6.13 3.1 6.7v.2h8.43l-.682-1.363c-.34-.68-.454-.89-.605-1.037a1.4 1.4 0 0 0-.523-.324ZM12.87 6.9 11.922 5l-.043-.085c-.279-.559-.482-.966-.795-1.273a2.6 2.6 0 0 0-.971-.6C9.698 2.9 9.242 2.9 8.618 2.9H5.675c-.539 0-.98 0-1.338.03-.37.03-.705.094-1.017.253A2.6 2.6 0 0 0 2.183 4.32c-.159.312-.224.647-.254 1.018-.03.358-.03.798-.03 1.337v9.051c0 .818 0 1.469.044 1.993.044.538.136.996.35 1.415a3.6 3.6 0 0 0 1.573 1.574c.42.213.877.305 1.415.35.524.042 1.175.042 1.993.042h9.452c.818 0 1.468 0 1.993-.043.537-.044.996-.136 1.415-.35a3.6 3.6 0 0 0 1.573-1.573c.214-.42.306-.877.35-1.415.043-.524.043-1.175.043-1.993v-3.452c0-.818 0-1.468-.043-1.993-.044-.538-.136-.996-.35-1.415a3.6 3.6 0 0 0-1.573-1.574c-.42-.213-.878-.305-1.415-.35-.525-.042-1.175-.042-1.993-.042h-3.855Zm-.382 1.2H16.7c.85 0 1.451 0 1.921.039.464.038.746.11.969.223a2.4 2.4 0 0 1 1.048 1.048c.113.223.185.505.223.968.038.47.039 1.072.039 1.922v3.4c0 .85 0 1.451-.039 1.922-.038.463-.11.745-.223.968a2.4 2.4 0 0 1-1.049 1.048c-.222.114-.504.185-.968.223-.47.038-1.071.039-1.921.039H7.3c-.85 0-1.451 0-1.922-.039-.463-.038-.745-.11-.968-.223a2.4 2.4 0 0 1-1.049-1.049c-.113-.222-.184-.504-.222-.967-.039-.47-.04-1.072-.04-1.922V8.1h9.389Z" clip-rule="evenodd"/>
</svg>
