<svg xmlns="http://www.w3.org/2000/svg" width="24" height="24" fill="none" viewBox="0 0 24 24">
  <path fill="currentColor" fill-rule="evenodd" d="M12.104 2.88a.4.4 0 0 0-.209 0c-.049.014-.114.05-.509.358L4.604 8.513c-.48.373-.627.494-.73.633a1.4 1.4 0 0 0-.222.455c-.047.166-.052.356-.052.964V17.8c0 .57 0 .961.025 1.265.024.296.069.455.128.57a1.4 1.4 0 0 0 .611.612c.116.06.275.104.571.128.304.024.695.025 1.265.025h11.6c.57 0 .961 0 1.265-.025.296-.024.455-.069.57-.128a1.4 1.4 0 0 0 .612-.611c.06-.116.104-.275.128-.571.024-.304.025-.695.025-1.265v-7.235c0-.608-.005-.798-.052-.964a1.4 1.4 0 0 0-.223-.455c-.102-.14-.249-.26-.729-.633l-6.782-5.275c-.395-.308-.46-.344-.51-.357Zm-.522-1.158a1.6 1.6 0 0 1 .836 0c.314.086.584.296.866.517l.067.051 6.782 5.276.06.046c.395.307.684.532.897.82.188.254.329.54.414.845.096.346.096.711.096 1.213v7.335c0 .539 0 .98-.03 1.337-.03.371-.094.706-.253 1.018a2.6 2.6 0 0 1-1.137 1.137c-.312.159-.647.224-1.018.254-.358.029-.798.029-1.337.029H6.175c-.539 0-.98 0-1.338-.03-.37-.03-.705-.094-1.017-.253a2.6 2.6 0 0 1-1.137-1.137c-.159-.312-.224-.647-.254-1.018-.03-.358-.03-.798-.029-1.337V10.49c0-.502 0-.867.096-1.213a2.6 2.6 0 0 1 .414-.845c.213-.288.502-.513.897-.82l.06-.046 6.782-5.276.067-.051c.282-.221.551-.431.866-.517Z" clip-rule="evenodd"/>
</svg>
