<svg xmlns="http://www.w3.org/2000/svg" width="24" height="24" fill="none" viewBox="0 0 24 24">
  <path fill="currentColor" fill-rule="evenodd" d="M12.104 2.88a.4.4 0 0 0-.209 0c-.049.014-.114.05-.509.358L4.604 8.513c-.48.373-.627.494-.73.633a1.4 1.4 0 0 0-.222.455c-.047.166-.052.356-.052.964V17.8c0 .57 0 .961.025 1.265.024.296.069.455.128.57a1.4 1.4 0 0 0 .611.612c.116.06.275.104.571.128.304.024.695.025 1.265.025h2.2v-6.822c0-.261 0-.492.016-.684a1.62 1.62 0 0 1 .158-.62 1.6 1.6 0 0 1 .7-.7 1.62 1.62 0 0 1 .62-.158c.192-.016.423-.016.684-.016h2.844c.261 0 .492 0 .684.016.204.016.415.054.62.158a1.6 1.6 0 0 1 .7.7c.104.205.142.417.158.62.016.192.016.423.016.684V20.4h2.2c.57 0 .961 0 1.265-.025.296-.024.455-.069.57-.128a1.4 1.4 0 0 0 .612-.611c.06-.116.104-.275.128-.571.024-.304.025-.695.025-1.265v-7.235c0-.608-.005-.798-.052-.964a1.4 1.4 0 0 0-.223-.455c-.102-.14-.249-.26-.729-.633l-6.782-5.275c-.395-.308-.46-.344-.51-.357Zm5.721 18.72c.539 0 .98 0 1.337-.03.371-.03.706-.094 1.018-.253a2.6 2.6 0 0 0 1.137-1.137c.159-.312.223-.647.254-1.018.029-.358.029-.798.029-1.337V10.49c0-.502 0-.867-.096-1.213a2.598 2.598 0 0 0-.414-.845c-.213-.288-.502-.513-.898-.82l-.06-.046-6.781-5.276-.067-.051c-.283-.221-.552-.431-.866-.517a1.6 1.6 0 0 0-.836 0c-.315.086-.584.296-.867.517l-.066.051-6.782 5.276-.06.046c-.395.307-.684.532-.897.82a2.6 2.6 0 0 0-.414.845c-.096.346-.096.711-.096 1.213v7.335c0 .539 0 .98.03 1.337.03.371.094.706.253 1.018a2.6 2.6 0 0 0 1.137 1.137c.312.159.647.224 1.017.254.359.029.8.029 1.338.029h11.65ZM14.4 20.4v-6.8c0-.29 0-.471-.012-.608a.49.49 0 0 0-.032-.174.4.4 0 0 0-.175-.174.493.493 0 0 0-.173-.032 8.48 8.48 0 0 0-.608-.012h-2.8c-.29 0-.471 0-.608.012a.494.494 0 0 0-.174.032.4.4 0 0 0-.174.174.493.493 0 0 0-.032.174 8.435 8.435 0 0 0-.012.608v6.8h4.8Z" clip-rule="evenodd"/>
</svg>
