<svg xmlns="http://www.w3.org/2000/svg" width="24" height="24" fill="none" viewBox="0 0 24 24">
  <path fill="currentColor" fill-rule="evenodd" d="M5.882 12.6H3.2v2.6c0 .86 0 1.433.037 1.873.035.426.096.62.16.744a1.8 1.8 0 0 0 .786.787c.123.063.318.124.744.16.44.035 1.013.036 1.873.036h10.4c.86 0 1.433 0 1.873-.037.426-.035.62-.096.744-.16a1.8 1.8 0 0 0 .787-.786c.063-.123.124-.318.16-.744.035-.44.036-1.013.036-1.873v-2.6h-2.682c-.458 0-.877.259-1.081.668a2.41 2.41 0 0 1-2.155 1.332H9.118a2.409 2.409 0 0 1-2.155-1.332 1.209 1.209 0 0 0-1.081-.668ZM20.8 11.4h-2.682a2.41 2.41 0 0 0-2.155 1.332c-.204.41-.623.668-1.081.668H9.118c-.458 0-.877-.259-1.081-.668A2.409 2.409 0 0 0 5.882 11.4H3.2V8.8c0-.86 0-1.433.037-1.873.035-.426.096-.62.16-.744a1.8 1.8 0 0 1 .786-.787c.123-.063.318-.124.744-.16C5.367 5.202 5.94 5.2 6.8 5.2h10.4c.86 0 1.433 0 1.873.037.426.035.62.096.744.16a1.8 1.8 0 0 1 .787.786c.063.123.124.318.16.744.035.44.036 1.013.036 1.873v2.6ZM22 8.8c0-1.68 0-2.52-.327-3.162a3 3 0 0 0-1.311-1.311C19.72 4 18.88 4 17.2 4H6.8c-1.68 0-2.52 0-3.162.327a3 3 0 0 0-1.311 1.311C2 6.28 2 7.12 2 8.8v6.4c0 1.68 0 2.52.327 3.162a3 3 0 0 0 1.311 1.311C4.28 20 5.12 20 6.8 20h10.4c1.68 0 2.52 0 3.162-.327a3 3 0 0 0 1.311-1.311C22 17.72 22 16.88 22 15.2V8.8Z" clip-rule="evenodd"/>
</svg>
