<svg xmlns="http://www.w3.org/2000/svg" width="24" height="24" fill="none" viewBox="0 0 24 24">
  <path fill="currentColor" fill-rule="evenodd" d="M12 3.6a3.9 3.9 0 1 0 0 7.8 3.9 3.9 0 0 0 0-7.8ZM6.9 7.5a5.1 5.1 0 1 1 10.2 0 5.1 5.1 0 0 1-10.2 0Zm2.479 7.4h5.242c1.28 0 2.06 0 2.714.198a4.6 4.6 0 0 1 3.067 3.067c.198.654.198 1.434.198 2.714V21a.6.6 0 1 1-1.2 0c0-1.44-.007-2.026-.146-2.487a3.4 3.4 0 0 0-2.267-2.267c-.461-.14-1.048-.146-2.487-.146h-5c-1.44 0-2.026.006-2.487.146a3.4 3.4 0 0 0-2.267 2.267c-.14.461-.146 1.048-.146 2.487a.6.6 0 1 1-1.2 0v-.121c0-1.28 0-2.06.198-2.714a4.6 4.6 0 0 1 3.067-3.067c.654-.198 1.434-.198 2.714-.198Z" clip-rule="evenodd"/>
</svg>
