<svg xmlns="http://www.w3.org/2000/svg" width="24" height="24" fill="none" viewBox="0 0 24 24">
  <path fill="currentColor" fill-rule="evenodd" d="M8.337 1.4h7.327c.373 0 .693 0 .95.023.264.024.544.078.793.243a1.6 1.6 0 0 1 .683 1.008c.06.293.007.573-.07.828-.073.247-.192.544-.33.89l-1.018 2.545a1.812 1.812 0 0 0-.058.15.404.404 0 0 0-.011.06 1.774 1.774 0 0 0-.003.161v2.13c0 .233.003.266.008.292.008.035.02.07.036.101.012.024.03.051.176.232l1.588 1.986c.317.396.58.726.762 1 .18.271.35.588.35.95a1.6 1.6 0 0 1-.602 1.252c-.282.225-.636.29-.96.32-.327.029-.75.029-1.257.029h-4.1V22a.6.6 0 1 1-1.2 0v-6.4H7.3c-.508 0-.93 0-1.258-.03-.323-.03-.677-.095-.96-.32a1.6 1.6 0 0 1-.601-1.252c0-.36.17-.678.35-.948.181-.275.445-.605.762-1.001l1.588-1.986c.145-.18.163-.208.176-.232a.4.4 0 0 0 .035-.101 1.83 1.83 0 0 0 .008-.291v-2.13c0-.129 0-.147-.002-.162a.4.4 0 0 0-.012-.06 1.77 1.77 0 0 0-.057-.15L6.31 4.392a11.29 11.29 0 0 1-.331-.89c-.076-.255-.13-.535-.07-.828a1.6 1.6 0 0 1 .683-1.008c.25-.165.53-.219.794-.243.257-.023.577-.023.95-.023Zm8.334 13c.545 0 .912 0 1.18-.025.259-.023.319-.063.32-.063a.4.4 0 0 0 .149-.311s-.007-.072-.15-.29c-.149-.223-.378-.51-.718-.936l-1.57-1.962-.023-.03a2.427 2.427 0 0 1-.284-.406 1.599 1.599 0 0 1-.142-.406 2.43 2.43 0 0 1-.033-.494v-2.19c0-.094 0-.185.01-.277.01-.08.025-.16.047-.239.024-.089.058-.173.093-.26l.008-.02 1.008-2.52c.15-.378.249-.624.305-.812.055-.186.045-.238.044-.24a.4.4 0 0 0-.17-.252c-.003-.002-.047-.031-.24-.049-.196-.017-.46-.018-.868-.018H8.364c-.408 0-.672 0-.868.018-.193.018-.237.047-.24.049a.4.4 0 0 0-.17.252c0 .002-.012.054.044.24.056.188.154.434.305.812l1.008 2.52.008.02c.035.087.069.171.093.26a1.6 1.6 0 0 1 .046.24c.01.091.01.182.01.276v2.19c0 .17 0 .333-.032.494a1.599 1.599 0 0 1-.143.406 2.429 2.429 0 0 1-.283.406l-.024.03-1.57 1.962c-.34.426-.569.713-.717.936-.143.218-.15.29-.15.29a.4.4 0 0 0 .15.311s.06.04.32.063c.266.024.634.025 1.178.025h9.342Z" clip-rule="evenodd"/>
</svg>
