<svg xmlns="http://www.w3.org/2000/svg" width="24" height="24" fill="none" viewBox="0 0 24 24">
  <path fill="currentColor" fill-rule="evenodd" d="M9.175 1.4h5.65c.539 0 .98 0 1.337.03.371.03.706.094 1.018.253a2.6 2.6 0 0 1 1.137 1.137c.159.312.223.647.254 1.018.029.358.029.798.029 1.337V6.41c.224.007.43.016.62.032.537.044.995.136 1.414.35a3.6 3.6 0 0 1 1.574 1.573c.213.42.305.877.35 1.415.042.524.042 1.175.042 1.993V14.1c0 .834 0 1.373-.123 1.832a3.6 3.6 0 0 1-2.545 2.545c-.36.097-.77.117-1.332.122v.226c0 .539 0 .98-.03 1.338-.03.37-.094.705-.253 1.017a2.6 2.6 0 0 1-1.137 1.137c-.312.159-.647.224-1.018.254-.358.029-.798.029-1.337.029h-5.65c-.539 0-.98 0-1.338-.03-.37-.03-.705-.094-1.017-.253a2.6 2.6 0 0 1-1.137-1.137c-.159-.312-.224-.647-.254-1.017a17.79 17.79 0 0 1-.03-1.338V18.6c-.561-.005-.97-.025-1.33-.122a3.6 3.6 0 0 1-2.546-2.545c-.123-.46-.123-.998-.123-1.832v-2.326c0-.818 0-1.468.043-1.993.044-.538.136-.996.35-1.415a3.6 3.6 0 0 1 1.573-1.574c.42-.213.877-.305 1.415-.35.19-.015.395-.024.619-.03V5.174c0-.539 0-.98.03-1.337.03-.371.094-.706.253-1.018A2.6 2.6 0 0 1 6.82 1.683c.312-.159.647-.223 1.017-.254.359-.029.8-.029 1.338-.029ZM6.6 6.4h10.8V5.2c0-.57 0-.961-.025-1.265-.024-.296-.069-.455-.128-.57a1.4 1.4 0 0 0-.611-.612c-.116-.06-.275-.104-.571-.128C15.76 2.6 15.37 2.6 14.8 2.6H9.2c-.57 0-.961 0-1.265.025-.296.024-.455.069-.57.128a1.4 1.4 0 0 0-.612.611c-.06.116-.104.275-.128.571C6.6 4.24 6.6 4.63 6.6 5.2v1.2Zm0 12.4c0 .57 0 .961.025 1.265.024.296.069.455.128.57a1.4 1.4 0 0 0 .611.612c.116.06.275.104.571.128.304.024.695.025 1.265.025h5.6c.57 0 .961 0 1.265-.025.296-.024.455-.069.57-.128a1.4 1.4 0 0 0 .612-.611c.06-.116.104-.275.128-.571.024-.304.025-.695.025-1.265v-1.6c0-.57 0-.961-.025-1.265-.024-.296-.069-.455-.128-.57a1.4 1.4 0 0 0-.611-.612c-.116-.06-.275-.104-.571-.128A17.797 17.797 0 0 0 14.8 14.6H9.2c-.57 0-.961 0-1.265.025-.296.024-.455.069-.57.128a1.4 1.4 0 0 0-.612.611c-.06.116-.104.275-.128.571-.025.304-.025.695-.025 1.265v1.6Zm12-1.402v-.223c0-.539 0-.98-.03-1.338-.03-.37-.094-.705-.253-1.017a2.6 2.6 0 0 0-1.137-1.137c-.312-.159-.647-.223-1.018-.254-.358-.029-.798-.029-1.337-.029h-5.65c-.539 0-.98 0-1.338.03-.37.03-.705.094-1.017.253a2.6 2.6 0 0 0-1.137 1.137c-.159.312-.224.647-.254 1.018-.03.358-.03.798-.03 1.337v.223c-.539-.005-.803-.021-1.02-.08a2.4 2.4 0 0 1-1.697-1.697C2.605 15.335 2.6 14.97 2.6 14v-2.2c0-.85 0-1.451.039-1.922.038-.463.11-.745.223-.968A2.4 2.4 0 0 1 3.91 7.862c.223-.114.505-.185.968-.223C5.348 7.6 5.95 7.6 6.8 7.6h10.4c.85 0 1.451 0 1.922.039.463.038.745.11.968.223a2.4 2.4 0 0 1 1.048 1.048c.114.223.185.505.223.968.038.47.039 1.072.039 1.922V14c0 .969-.005 1.335-.082 1.621a2.4 2.4 0 0 1-1.697 1.697c-.217.058-.481.075-1.021.08ZM14.4 10.5a.6.6 0 0 1 .6-.6h3a.6.6 0 1 1 0 1.2h-3a.6.6 0 0 1-.6-.6Z" clip-rule="evenodd"/>
</svg>
