<svg xmlns="http://www.w3.org/2000/svg" width="24" height="24" fill="none" viewBox="0 0 24 24">
  <path fill="currentColor" d="M10.704 7.926A2.4 2.4 0 0 1 14.32 10c0 .681-.52 1.275-1.233 1.75a6.449 6.449 0 0 1-1.334.673l-.02.007-.004.001a.6.6 0 0 0-.41.569v1a.6.6 0 1 0 1.2 0v-.59a7.654 7.654 0 0 0 1.233-.66c.787-.525 1.768-1.431 1.768-2.75a3.6 3.6 0 0 0-6.996-1.2.6.6 0 0 0 1.132.4 2.4 2.4 0 0 1 1.048-1.274ZM11.15 17c0-.47.38-.85.85-.85h.01a.85.85 0 0 1 0 1.7H12a.85.85 0 0 1-.85-.85Z"/>
  <path fill="currentColor" fill-rule="evenodd" d="M12 1.4C6.146 1.4 1.4 6.146 1.4 12c0 5.854 4.746 10.6 10.6 10.6 5.854 0 10.6-4.746 10.6-10.6 0-5.854-4.746-10.6-10.6-10.6ZM2.6 12a9.4 9.4 0 1 1 18.8 0 9.4 9.4 0 0 1-18.8 0Z" clip-rule="evenodd"/>
</svg>
