<svg xmlns="http://www.w3.org/2000/svg" width="24" height="24" fill="none" viewBox="0 0 24 24">
  <path fill="currentColor" fill-rule="evenodd" d="M15.498 3.639c-.145-.035-.306-.039-.824-.039H7.6v2.8c0 .29 0 .471.012.608.01.13.027.165.032.174a.4.4 0 0 0 .174.174.493.493 0 0 0 .174.032c.137.012.318.012.608.012h6.8c.29 0 .471 0 .608-.012a.493.493 0 0 0 .174-.032.4.4 0 0 0 .174-.174.494.494 0 0 0 .032-.174c.011-.137.012-.318.012-.608V4.249c-.28-.278-.384-.373-.497-.443a1.401 1.401 0 0 0-.405-.167Zm1.926-.063-.063-.063-.045-.045c-.302-.303-.522-.523-.786-.685a2.6 2.6 0 0 0-.752-.311c-.3-.072-.612-.072-1.04-.072H7.774l-.733.001a.608.608 0 0 0-.09.001 16.91 16.91 0 0 0-1.17.04c-.538.045-.996.137-1.415.35a3.6 3.6 0 0 0-1.574 1.574c-.213.42-.305.877-.35 1.415C2.4 6.306 2.4 6.956 2.4 7.774v8.452c0 .818 0 1.469.043 1.993.044.538.136.996.35 1.415a3.6 3.6 0 0 0 1.573 1.574c.42.213.877.305 1.415.35a16.376 16.376 0 0 0 1.26.04c.228.002.472.002.733.002h8.452l.733-.001a.622.622 0 0 0 .09-.001c.449-.004.835-.014 1.17-.04.537-.045.996-.137 1.415-.35a3.6 3.6 0 0 0 1.573-1.574c.214-.42.306-.877.35-1.415.043-.524.043-1.175.043-1.993V9.262c0-.428 0-.74-.072-1.04a2.602 2.602 0 0 0-.311-.752c-.162-.264-.383-.484-.685-.786l-.045-.046-3.063-3.063Zm.176 1.873v.973c0 .261 0 .492-.016.684a1.626 1.626 0 0 1-.159.62 1.6 1.6 0 0 1-.699.7 1.626 1.626 0 0 1-.62.158c-.192.016-.423.016-.684.016H8.578c-.261 0-.492 0-.684-.016a1.626 1.626 0 0 1-.62-.158 1.6 1.6 0 0 1-.7-.7 1.626 1.626 0 0 1-.158-.62C6.4 6.914 6.4 6.683 6.4 6.422v-2.81a9.325 9.325 0 0 0-.522.027c-.463.038-.745.11-.968.223A2.4 2.4 0 0 0 3.861 4.91c-.113.223-.184.505-.222.968-.039.47-.04 1.072-.04 1.922v8.4c0 .85.001 1.451.04 1.922.038.463.11.745.222.968a2.4 2.4 0 0 0 1.05 1.048c.222.114.504.185.967.223.158.013.33.022.522.027v-5.81c0-.261 0-.492.016-.684a1.62 1.62 0 0 1 .158-.62 1.6 1.6 0 0 1 .7-.7 1.62 1.62 0 0 1 .62-.158c.192-.016.423-.016.684-.016h6.844c.261 0 .492 0 .684.016.203.016.415.054.62.158a1.6 1.6 0 0 1 .7.7c.104.205.142.417.158.62.016.192.016.423.016.684v5.81c.191-.005.364-.014.521-.027.464-.038.746-.11.969-.223a2.4 2.4 0 0 0 1.048-1.048c.113-.223.185-.505.223-.968.038-.47.039-1.072.039-1.922V9.325c0-.517-.004-.678-.039-.823a1.399 1.399 0 0 0-.167-.405c-.078-.127-.19-.244-.556-.61L17.6 5.449ZM16.4 20.4v-5.8c0-.29 0-.471-.012-.608a.494.494 0 0 0-.032-.174.4.4 0 0 0-.175-.174.494.494 0 0 0-.173-.032 8.477 8.477 0 0 0-.608-.012H8.6c-.29 0-.471 0-.608.012a.493.493 0 0 0-.174.032.4.4 0 0 0-.174.174.494.494 0 0 0-.032.174 8.437 8.437 0 0 0-.012.608v5.8h8.8Z" clip-rule="evenodd"/>
</svg>
