<svg xmlns="http://www.w3.org/2000/svg" width="24" height="24" fill="none" viewBox="0 0 24 24">
  <path fill="currentColor" fill-rule="evenodd" d="M4.942 5.79A9.364 9.364 0 0 0 2.6 12a9.4 9.4 0 0 0 9.4 9.4c2.38 0 4.553-.884 6.209-2.342L4.942 5.79Zm.849-.848L19.058 18.21A9.364 9.364 0 0 0 21.4 12 9.4 9.4 0 0 0 12 2.6c-2.38 0-4.553.884-6.21 2.342ZM1.4 12C1.4 6.146 6.146 1.4 12 1.4c5.854 0 10.6 4.746 10.6 10.6 0 5.854-4.746 10.6-10.6 10.6-5.854 0-10.6-4.746-10.6-10.6Z" clip-rule="evenodd"/>
</svg>
