<svg xmlns="http://www.w3.org/2000/svg" width="24" height="24" fill="none" viewBox="0 0 24 24">
  <path fill="currentColor" fill-rule="evenodd" d="M11.527 2.137a1.1 1.1 0 0 1 .946 0c.243.116.387.322.477.469.092.15.189.345.294.56l2.198 4.452c.017.035.03.062.043.085l.004.009.009.001.094.014 4.917.719c.236.034.452.066.622.107.168.04.408.113.593.309a1.1 1.1 0 0 1 .292.9c-.035.267-.187.468-.298.598a7.53 7.53 0 0 1-.442.453l-3.556 3.463-.068.067-.007.007.002.01.015.094.84 4.892c.04.235.077.45.09.625.014.172.019.423-.11.66a1.1 1.1 0 0 1-.766.557c-.265.049-.502-.034-.661-.1a7.468 7.468 0 0 1-.567-.28l-4.395-2.311-.085-.044-.008-.005a14.009 14.009 0 0 0-.093.049l-4.395 2.311a7.468 7.468 0 0 1-.567.28c-.159.066-.397.149-.661.1a1.1 1.1 0 0 1-.767-.557c-.128-.237-.123-.488-.11-.66.014-.174.051-.39.091-.625l.84-4.893.015-.094.002-.01-.007-.006-.068-.067-3.556-3.463c-.171-.167-.328-.32-.442-.453-.112-.13-.263-.33-.298-.598a1.1 1.1 0 0 1 .292-.9c.185-.196.425-.269.592-.31.17-.04.387-.072.623-.106l4.916-.719.095-.014.01-.001.003-.009.043-.085 2.198-4.453c.105-.214.202-.41.294-.56.09-.146.233-.352.476-.468Z" clip-rule="evenodd"/>
</svg>
