<svg xmlns="http://www.w3.org/2000/svg" width="24" height="24" fill="none" viewBox="0 0 24 24">
  <path fill="currentColor" fill-rule="evenodd" d="M9.4 8a2.6 2.6 0 1 1 5.2 0 2.6 2.6 0 0 1-5.2 0ZM12 6.6a1.4 1.4 0 1 0 0 2.8 1.4 1.4 0 0 0 0-2.8Zm0 6.8a2.6 2.6 0 1 0 0 5.2 2.6 2.6 0 0 0 0-5.2ZM10.6 16a1.4 1.4 0 1 1 2.8 0 1.4 1.4 0 0 1-2.8 0Z" clip-rule="evenodd"/>
  <path fill="currentColor" fill-rule="evenodd" d="M9.774 1.4h4.452c.818 0 1.468 0 1.993.043.537.044.996.136 1.415.35a3.6 3.6 0 0 1 1.573 1.573c.214.42.306.877.35 1.415.043.525.043 1.175.043 1.993v10.452c0 .818 0 1.469-.043 1.993-.044.538-.136.996-.35 1.415a3.6 3.6 0 0 1-1.573 1.574c-.42.213-.878.305-1.415.35-.525.042-1.175.042-1.993.042H9.774c-.818 0-1.469 0-1.993-.043-.538-.044-.996-.136-1.415-.35a3.6 3.6 0 0 1-1.574-1.573c-.213-.42-.305-.877-.35-1.415-.042-.524-.042-1.175-.042-1.993V6.774c0-.818 0-1.468.043-1.993.044-.538.136-.996.35-1.415a3.6 3.6 0 0 1 1.573-1.574c.42-.213.877-.305 1.415-.35C8.305 1.4 8.956 1.4 9.774 1.4ZM7.878 2.639c-.463.038-.745.11-.968.223A2.4 2.4 0 0 0 5.861 3.91c-.113.223-.184.505-.222.968-.039.47-.04 1.072-.04 1.922v10.4c0 .85.001 1.451.04 1.922.038.463.11.745.222.968a2.4 2.4 0 0 0 1.05 1.048c.222.114.504.185.967.223.47.039 1.072.039 1.922.039h4.4c.85 0 1.451 0 1.921-.039.464-.038.746-.11.969-.223a2.4 2.4 0 0 0 1.048-1.048c.113-.223.185-.505.223-.968.038-.47.039-1.072.039-1.922V6.8c0-.85 0-1.451-.039-1.922-.038-.463-.11-.745-.223-.968a2.4 2.4 0 0 0-1.049-1.048c-.222-.114-.504-.185-.968-.223C15.651 2.6 15.05 2.6 14.2 2.6H9.8c-.85 0-1.451 0-1.922.039Z" clip-rule="evenodd"/>
</svg>
