<svg xmlns="http://www.w3.org/2000/svg" width="24" height="24" fill="none" viewBox="0 0 24 24">
  <path fill="currentColor" fill-rule="evenodd" d="M17.973 17.973c.603-.035 1.027-.116 1.39-.3a3 3 0 0 0 1.31-1.311C21 15.72 21 14.88 21 13.2V7.8c0-1.68 0-2.52-.327-3.162a3 3 0 0 0-1.31-1.311C18.72 3 17.88 3 16.2 3h-5.4c-1.68 0-2.52 0-3.162.327a3 3 0 0 0-1.31 1.311c-.185.362-.265.786-.3 1.39-.603.034-1.028.115-1.39.299a3 3 0 0 0-1.311 1.311C3 8.28 3 9.12 3 10.8v5.4c0 1.68 0 2.52.327 3.162a3 3 0 0 0 1.311 1.311C5.28 21 6.12 21 7.8 21h5.4c1.68 0 2.52 0 3.162-.327a3 3 0 0 0 1.311-1.311c.184-.362.265-.786.3-1.39ZM17.538 7.4a3 3 0 0 0-1.176-1.073C15.72 6 14.88 6 13.2 6H7.232l.005-.073c.035-.426.097-.62.16-.744a1.8 1.8 0 0 1 .786-.787c.124-.063.319-.124.745-.16.44-.035 1.012-.036 1.872-.036h5.4c.86 0 1.433 0 1.873.037.426.035.62.096.744.16a1.8 1.8 0 0 1 .787.786c.063.123.125.318.16.744.03.368.035.83.036 1.473h-2.262Zm.398 1.2C18 9.134 18 9.826 18 10.8v5.969l.073-.006c.426-.035.62-.096.744-.16a1.8 1.8 0 0 0 .787-.786c.063-.123.125-.318.16-.744.035-.44.036-1.013.036-1.873V8.6h-1.864ZM4.2 11.6h12.6v4.6c0 .86 0 1.433-.037 1.873-.035.426-.096.62-.16.744a1.8 1.8 0 0 1-.786.787c-.123.063-.318.124-.744.16-.44.035-1.013.036-1.873.036H7.8c-.86 0-1.433 0-1.873-.037-.426-.035-.62-.096-.744-.16a1.8 1.8 0 0 1-.787-.786c-.063-.123-.124-.318-.16-.744-.035-.44-.036-1.013-.036-1.873v-4.6Zm0-1.2h12.6a19.706 19.706 0 0 0-.037-1.473c-.035-.426-.096-.62-.16-.744a1.8 1.8 0 0 0-.786-.787c-.123-.063-.318-.124-.744-.16-.44-.035-1.013-.036-1.873-.036H7.8c-.86 0-1.433 0-1.873.037-.426.035-.62.096-.744.16a1.8 1.8 0 0 0-.787.786c-.063.123-.124.318-.16.744-.03.368-.035.83-.036 1.473Z" clip-rule="evenodd"/>
</svg>
